<svg width="180" height="100" viewBox="0 0 180 100" xmlns="http://www.w3.org/2000/svg">
  <path d="M165 71.8c7.4-3.6 12.5-11.1 12.5-19.9 0-12.2-5.9-20.1-14.1-21.9-8.2-1.8-13-0.2-18 2.5-2.4-7.3-6.8-13.4-11.3-18.2-4.5-4.8-13.8-7-21.8-4.5-8 2.5-15 7-17 17-1.3 6.5-0.2 10.3-0.2 11.8-2.9-1-5.1-1.8-10.3-1.3-5.2 0.5-8 1.9-14 5.8-6 3.9-10.1 7.2-12.9 15.3-2.8 8.1-3.8 11.1-2.5 14.8 1.3 3.7 2.1 5.4 4.1 9.1C59.5 86 55.3 81.5 49 82.3c-6.3 0.8-10.9 4.3-13.5 8.5-2.6 4.2-3.1 11.4 1.5 15.5 4.6 4.1 8.2 4.1 14.9 4.7 6.7 0.6 38.1 0.1 64.5-0.9 26.4-1 36.1-0.6 44.1-3.8 8-3.2 15.2-6.3 17.6-15.7 2.4-9.4-5.7-15.4-13.1-18.8z" fill="#1e40bc" fill-opacity="0.18"/>
</svg> 