<svg width="200" height="120" viewBox="0 0 200 120" xmlns="http://www.w3.org/2000/svg">
  <path d="M47.5 95C37.8 97.6 21.8 94.2 14 87.5C6.2 80.8 1 74.2 1 48.5C1 22.8 14.8 8.2 32.5 4.2C50.2 0.2 67.5 2 79.6 15.3C85 19.8 88.2 25.4 90.6 32.3C98.1 22.3 104.5 18 116.5 17C128.5 16 139.3 19 147.5 29.2C155.7 39.4 166 44.7 166 57.5C166 59.6 165.9 61.7 165.5 63.7C174.1 64.8 182.1 72.8 188 82C193.9 91.2 194 101 184 111C174 121 163.5 125 145 125C126.5 125 108 129 87.5 124C67 119 57.2 92.4 47.5 95Z" fill="#0048ba" fill-opacity="0.15"/>
</svg> 