<svg width="170" height="85" viewBox="0 0 170 85" xmlns="http://www.w3.org/2000/svg">
  <path d="M159.4 70.7c0-4.8-1.9-9.2-5-12.4-3.1-3.2-7.4-5.2-12.2-5.2-1.1 0-3.2 0.7-3.3 0.3-0.4-2.8-1.1-7.5-2.9-12.2-1.8-4.7-4.4-9.3-8.1-12.7-3.7-3.4-8.5-5.7-14.3-6.3-5.8-0.6-12.5 0.5-18.3 3.8-5.8 3.3-10.6 8.7-13.1 16.2-2.5 7.5-2.9 17.1-0.9 21.8 0.5 1.2 1.2 2.1 0 2.5-1.2 0.4-3-0.5-5.6-0.8-2.6-0.3-6-0.1-9.9 1.2-3.9 1.3-8.3 3.7-11.8 7.6-3.5 3.9-6.2 9.3-6.8 14.5-0.6 5.2 0.9 10.1 4.1 14.1 3.2 4 8.2 7 14.7 8.4 6.5 1.4 14.5 1.2 25.8 1.2 11.3 0 25.8 0.1 38.6-1.8 12.8-1.9 23.9-5.8 31.1-12.2 7.2-6.4 10.6-15.3 10.6-21.5 0-3.1-0.8-5.4-1.7-6.9-0.9-1.5-1.9-2.3-1.9-0.6z" fill="#1e40bc" fill-opacity="0.16"/>
</svg> 