<svg width="140" height="80" viewBox="0 0 140 80" xmlns="http://www.w3.org/2000/svg">
  <path d="M23.3 59.6C16.5 61.8 7.5 56.2 3.2 48.3C-1.1 40.4 0 31.3 4.5 24.9C9 18.5 17.3 13 23.3 13C23.9 13 24.9 13.1 27.1 13.9C29.3 14.7 31.1 9.4 35.9 4.7C40.7 0 43.8 0 51.6 0C59.4 0 63.5 4.3 68 7.2C72.5 10.1 73.9 13.2 74.5 14.4C77.3 13.9 82.6 14.4 88.3 19.9C94 25.4 93 30.9 93 32.9C93 34.9 92.9 37.2 90.8 37.6C88.7 38 86.3 34.3 87.8 35.6C89.3 36.9 93.3 34.3 98.1 33.6C102.9 32.9 108.1 35.7 113.7 42.4C119.3 49.1 121.7 54.2 121.7 61.2C121.7 68.2 115.5 74.8 106.1 74.8C96.7 74.8 83.9 73.8 69.3 73.8C54.7 73.8 34.7 75.8 23.3 69.8C11.9 63.8 21.3 59.6 23.3 59.6Z" fill="#0048ba" fill-opacity="0.14"/>
</svg> 