<svg width="160" height="90" viewBox="0 0 160 90" xmlns="http://www.w3.org/2000/svg">
  <path d="M139.5 69.2c6.3-3.4 10.5-10 10.5-17.4 0-6.1-2.2-11.5-5.9-15.5-3.7-4-8.6-6.4-14-4.4-3.2 1.2-5.8 0.9-6.3 1-1.6-10.1-7.3-16.9-15.9-17.7-8.6-0.8-14.3 2.5-18.2 8.6-3.9 6.1-6 10.6-3 12.6 1.2 0.8 2 1.4 0.1 2.2-1.9 0.8-4.2-0.5-9.2-1.1-5-0.6-10.2 1.5-14.2 7.1-4 5.6-7 14-7 21.2 0 5.3 2.1 10.1 5.6 13.6 3.5 3.5 8.3 5.6 13.6 7.6 5.3 2 5.5 1.2 10 2 4.5 0.8 10.5 1.6 20.5 1.6 10 0 23.5-0.8 31-5 7.5-4.2 9.7-10.5 9.7-15.4 0-2.4-0.5-4.6-1.7-6.8-1.2-2.2-2.9-3.9-4.6-5.2" fill="#0048ba" fill-opacity="0.12"/>
</svg> 